<?xml version="1.0" encoding="UTF-8"?>
<svg xmlns="http://www.w3.org/2000/svg" viewBox="0 0 400 225" width="400" height="225">
  <defs>
    <linearGradient id="bgGrad" x1="0%" y1="0%" x2="100%" y2="100%">
      <stop offset="0%" style="stop-color:#364f6b"/>
      <stop offset="100%" style="stop-color:#243447"/>
    </linearGradient>
  </defs>
  <rect width="400" height="225" fill="url(#bgGrad)"/>
  <circle cx="320" cy="180" r="80" fill="rgba(77,166,255,0.08)"/>
  <circle cx="80" cy="50" r="60" fill="rgba(77,166,255,0.06)"/>
  <!-- Building -->
  <rect x="160" y="50" width="80" height="130" rx="4" fill="#1c2a3b" stroke="#4da6ff" stroke-width="2"/>
  <!-- Windows -->
  <rect x="170" y="60" width="15" height="15" rx="2" fill="#4da6ff" opacity="0.8"/>
  <rect x="195" y="60" width="15" height="15" rx="2" fill="#4da6ff" opacity="0.6"/>
  <rect x="220" y="60" width="15" height="15" rx="2" fill="#4da6ff" opacity="0.9"/>
  <rect x="170" y="85" width="15" height="15" rx="2" fill="#4da6ff" opacity="0.7"/>
  <rect x="195" y="85" width="15" height="15" rx="2" fill="#4da6ff" opacity="0.5"/>
  <rect x="220" y="85" width="15" height="15" rx="2" fill="#4da6ff" opacity="0.8"/>
  <rect x="170" y="110" width="15" height="15" rx="2" fill="#4da6ff" opacity="0.6"/>
  <rect x="195" y="110" width="15" height="15" rx="2" fill="#4da6ff" opacity="0.9"/>
  <rect x="220" y="110" width="15" height="15" rx="2" fill="#4da6ff" opacity="0.7"/>
  <!-- Door -->
  <rect x="185" y="145" width="30" height="35" rx="2" fill="#243447"/>
  <!-- NFC Cards stack -->
  <rect x="280" y="80" width="60" height="38" rx="4" fill="#4da6ff" opacity="0.5"/>
  <rect x="285" y="75" width="60" height="38" rx="4" fill="#4da6ff" opacity="0.7"/>
  <rect x="290" y="70" width="60" height="38" rx="4" fill="#4da6ff"/>
  <circle cx="305" cy="85" r="8" fill="#243447"/>
  <!-- People silhouettes -->
  <circle cx="80" cy="140" r="10" fill="#e6f0f7"/>
  <rect x="70" y="152" width="20" height="25" rx="3" fill="#e6f0f7"/>
  <circle cx="110" cy="145" r="8" fill="#bcc9d4"/>
  <rect x="102" y="155" width="16" height="20" rx="2" fill="#bcc9d4"/>
  <!-- Text -->
  <text x="200" y="205" fill="#e6f0f7" font-family="Arial, sans-serif" font-size="13" text-anchor="middle" font-weight="bold">بطاقات NFC للشركات</text>
</svg>
