<?xml version="1.0" encoding="UTF-8"?>
<svg xmlns="http://www.w3.org/2000/svg" viewBox="0 0 400 225" width="400" height="225">
  <defs>
    <linearGradient id="bgGrad" x1="0%" y1="0%" x2="100%" y2="100%">
      <stop offset="0%" style="stop-color:#364f6b"/>
      <stop offset="100%" style="stop-color:#243447"/>
    </linearGradient>
  </defs>
  <rect width="400" height="225" fill="url(#bgGrad)"/>
  <circle cx="320" cy="60" r="70" fill="rgba(77,166,255,0.08)"/>
  <circle cx="80" cy="180" r="50" fill="rgba(77,166,255,0.06)"/>
  <!-- Pyramids -->
  <path d="M120 160 L170 80 L220 160 Z" fill="#c9a227" opacity="0.8"/>
  <path d="M60 160 L100 100 L140 160 Z" fill="#c9a227" opacity="0.6"/>
  <path d="M180 160 L210 110 L240 160 Z" fill="#c9a227" opacity="0.5"/>
  <!-- NFC Card with Egypt colors -->
  <rect x="250" y="60" width="100" height="65" rx="6" fill="#1c2a3b" stroke="#c9a227" stroke-width="2"/>
  <rect x="260" y="70" width="20" height="15" rx="2" fill="#ce1126"/>
  <rect x="260" y="85" width="20" height="15" rx="2" fill="#fff"/>
  <rect x="260" y="100" width="20" height="15" rx="2" fill="#000"/>
  <rect x="290" y="75" width="50" height="6" rx="2" fill="#e6f0f7"/>
  <rect x="290" y="85" width="40" height="4" rx="1" fill="#bcc9d4"/>
  <rect x="290" y="95" width="45" height="4" rx="1" fill="#bcc9d4"/>
  <!-- Signal waves -->
  <path d="M355 80 Q365 92 355 104" stroke="#4da6ff" stroke-width="2" fill="none"/>
  <path d="M362 75 Q375 92 362 109" stroke="#4da6ff" stroke-width="2" fill="none" opacity="0.6"/>
  <!-- Text -->
  <text x="200" y="195" fill="#e6f0f7" font-family="Arial, sans-serif" font-size="13" text-anchor="middle" font-weight="bold">حلول NFC للشركات في مصر</text>
</svg>
