<svg xmlns="http://www.w3.org/2000/svg" viewBox="0 0 400 225">
  <defs>
    <linearGradient id="bgGrad" x1="0%" y1="0%" x2="100%" y2="100%">
      <stop offset="0%" style="stop-color:#364f6b"/>
      <stop offset="100%" style="stop-color:#243447"/>
    </linearGradient>
  </defs>
  <rect width="400" height="225" fill="url(#bgGrad)"/>
  <circle cx="350" cy="50" r="70" fill="rgba(77,166,255,0.08)"/>
  <circle cx="50" cy="190" r="50" fill="rgba(77,166,255,0.06)"/>
  <!-- Phone with QR menu -->
  <rect x="150" y="40" width="100" height="160" rx="12" fill="#1c2a3b" stroke="#4da6ff" stroke-width="2"/>
  <rect x="160" y="55" width="80" height="120" rx="4" fill="#243447"/>
  <!-- QR Code -->
  <rect x="175" y="70" width="50" height="50" fill="#e6f0f7"/>
  <rect x="180" y="75" width="10" height="10" fill="#243447"/>
  <rect x="195" y="75" width="10" height="10" fill="#243447"/>
  <rect x="210" y="75" width="10" height="10" fill="#243447"/>
  <rect x="180" y="90" width="10" height="10" fill="#243447"/>
  <rect x="195" y="90" width="10" height="10" fill="#243447"/>
  <rect x="180" y="105" width="10" height="10" fill="#243447"/>
  <rect x="210" y="105" width="10" height="10" fill="#243447"/>
  <!-- Menu items -->
  <rect x="168" y="130" width="64" height="8" rx="2" fill="#4da6ff"/>
  <rect x="168" y="142" width="50" height="6" rx="2" fill="#bcc9d4"/>
  <rect x="168" y="152" width="55" height="6" rx="2" fill="#bcc9d4"/>
  <!-- Fork and knife -->
  <path d="M80 80 L80 140 M70 80 L70 100 Q70 110 80 110 Q90 110 90 100 L90 80" stroke="#4da6ff" stroke-width="3" fill="none"/>
  <rect x="310" y="80" width="4" height="60" rx="2" fill="#4da6ff"/>
  <path d="M305 80 L305 100 Q305 108 320 108 Q335 108 335 100 L335 80" fill="#4da6ff"/>
  <!-- Text -->
  <text x="200" y="215" fill="#e6f0f7" font-family="Arial, sans-serif" font-size="13" text-anchor="middle" font-weight="bold">المنيو الرقمي للمطاعم</text>
</svg>
