<?xml version="1.0" encoding="UTF-8"?>
<svg xmlns="http://www.w3.org/2000/svg" viewBox="0 0 400 225" width="400" height="225">
  <defs>
    <linearGradient id="bgGrad" x1="0%" y1="0%" x2="100%" y2="100%">
      <stop offset="0%" style="stop-color:#364f6b"/>
      <stop offset="100%" style="stop-color:#243447"/>
    </linearGradient>
  </defs>
  <rect width="400" height="225" fill="url(#bgGrad)"/>
  <circle cx="320" cy="180" r="80" fill="rgba(77,166,255,0.08)"/>
  <circle cx="80" cy="50" r="60" fill="rgba(0,100,0,0.08)"/>
  <!-- Kingdom Tower style building -->
  <path d="M200 30 L180 160 L220 160 Z" fill="#1c2a3b" stroke="#006c35" stroke-width="2"/>
  <rect x="185" y="60" width="30" height="80" fill="#243447"/>
  <!-- Windows -->
  <rect x="190" y="70" width="8" height="8" fill="#4da6ff" opacity="0.8"/>
  <rect x="202" y="70" width="8" height="8" fill="#4da6ff" opacity="0.6"/>
  <rect x="190" y="85" width="8" height="8" fill="#4da6ff" opacity="0.7"/>
  <rect x="202" y="85" width="8" height="8" fill="#4da6ff" opacity="0.9"/>
  <rect x="190" y="100" width="8" height="8" fill="#4da6ff" opacity="0.5"/>
  <rect x="202" y="100" width="8" height="8" fill="#4da6ff" opacity="0.8"/>
  <!-- Saudi flag colors on card -->
  <rect x="260" y="70" width="90" height="55" rx="5" fill="#006c35"/>
  <text x="305" y="100" fill="#fff" font-family="Arial" font-size="10" text-anchor="middle">NFC</text>
  <rect x="268" y="108" width="30" height="10" rx="2" fill="#fff"/>
  <!-- Palm trees -->
  <rect x="80" y="130" width="6" height="30" fill="#8B4513"/>
  <path d="M83 130 Q60 110 50 120 Q60 125 70 120 Q65 130 83 130" fill="#006c35"/>
  <path d="M83 130 Q100 110 110 120 Q100 125 90 120 Q95 130 83 130" fill="#006c35"/>
  <!-- Text -->
  <text x="200" y="195" fill="#e6f0f7" font-family="Arial, sans-serif" font-size="13" text-anchor="middle" font-weight="bold">رؤية 2030 - NFC للشركات السعودية</text>
</svg>
