<?xml version="1.0" encoding="UTF-8"?>
<svg xmlns="http://www.w3.org/2000/svg" viewBox="0 0 400 225" width="400" height="225">
  <defs>
    <linearGradient id="bgGrad" x1="0%" y1="0%" x2="100%" y2="100%">
      <stop offset="0%" style="stop-color:#364f6b"/>
      <stop offset="100%" style="stop-color:#243447"/>
    </linearGradient>
  </defs>
  <rect width="400" height="225" fill="url(#bgGrad)"/>
  <circle cx="340" cy="60" r="70" fill="rgba(77,166,255,0.08)"/>
  <circle cx="60" cy="170" r="50" fill="rgba(77,166,255,0.06)"/>
  <!-- Laptop -->
  <rect x="120" y="80" width="160" height="100" rx="8" fill="#1c2a3b" stroke="#4da6ff" stroke-width="2"/>
  <rect x="130" y="90" width="140" height="75" rx="2" fill="#243447"/>
  <!-- Code on screen -->
  <rect x="140" y="100" width="40" height="6" rx="2" fill="#4da6ff"/>
  <rect x="185" y="100" width="30" height="6" rx="2" fill="#2ecc71"/>
  <rect x="140" y="112" width="25" height="5" rx="1" fill="#bcc9d4"/>
  <rect x="170" y="112" width="45" height="5" rx="1" fill="#e6f0f7"/>
  <rect x="140" y="122" width="60" height="5" rx="1" fill="#bcc9d4"/>
  <rect x="140" y="132" width="35" height="5" rx="1" fill="#4da6ff"/>
  <rect x="180" y="132" width="50" height="5" rx="1" fill="#bcc9d4"/>
  <rect x="140" y="142" width="55" height="5" rx="1" fill="#e6f0f7"/>
  <!-- Keyboard base -->
  <path d="M100 180 L300 180 L310 195 L90 195 Z" fill="#1c2a3b"/>
  <!-- NFC card floating -->
  <rect x="280" y="50" width="70" height="45" rx="5" fill="#4da6ff" transform="rotate(15, 315, 72)"/>
  <circle cx="295" cy="60" r="8" fill="#243447" transform="rotate(15, 315, 72)"/>
  <!-- Text -->
  <text x="200" y="215" fill="#e6f0f7" font-family="Arial, sans-serif" font-size="13" text-anchor="middle" font-weight="bold">للمستقلين والفريلانسرز</text>
</svg>
